<?xml version="1.0" standalone="no"?>
<svg xmlns="http://www.w3.org/2000/svg" viewBox="0 0 131.18 36" width="131.18" height="36"><g fill="#00936f" color="#00936f" transform="translate(0 3.9999999999999982) scale(0.2800001)"><svg width="100.0" height="100.0" x="0.0" y="0.0" viewBox="0 0 100 100"><rect x="22.698" y="49.426" width="15.94" height="15.94"></rect><rect x="42.174" y="55.947" width="15.941" height="15.939"></rect><rect x="61.832" y="49.426" width="15.941" height="15.94"></rect><rect x="22.698" y="75.27" width="15.94" height="15.939"></rect><rect x="42.174" y="75.27" width="15.941" height="15.939"></rect><rect x="61.832" y="68.266" width="15.941" height="15.939"></rect><rect x="61.832" y="23.824" width="15.941" height="15.941"></rect><rect x="42.589" y="36.867" width="15.94" height="15.941"></rect><rect x="22.698" y="9.333" width="15.94" height="15.94"></rect></svg></g><path fill="#1c2149" fill-rule="nonzero" d="M16.45 11.53L16.68 4.62L16.62 4.61L11.10 18.28L9.56 18.28L4.04 4.62L3.98 4.63L4.22 11.53L4.22 16.48L6.13 16.80L6.13 18.28L0 18.28L0 16.80L1.91 16.48L1.91 3.04L0 2.71L0 1.22L1.91 1.22L4.86 1.22L10.30 15.08L10.37 15.08L15.80 1.22L20.67 1.22L20.67 2.71L18.76 3.04L18.76 16.48L20.67 16.80L20.67 18.28L14.54 18.28L14.54 16.80L16.45 16.48L16.45 11.53ZM33.83 18.28L30.81 18.28Q30.70 17.77 30.64 17.36Q30.59 16.95 30.56 16.54L30.56 16.54Q29.89 17.39 28.89 17.96Q27.89 18.53 26.75 18.53L26.75 18.53Q24.77 18.53 23.74 17.56Q22.71 16.59 22.71 14.84L22.71 14.84Q22.71 13.03 24.17 12.05Q25.63 11.07 28.17 11.07L28.17 11.07L30.55 11.07L30.55 9.60Q30.55 8.48 29.85 7.83Q29.14 7.18 27.89 7.18L27.89 7.18Q27.02 7.18 26.36 7.41Q25.70 7.63 25.29 8.02L25.29 8.02L25.04 9.35L23.26 9.35L23.26 6.89Q24.13 6.20 25.36 5.78Q26.59 5.37 28.03 5.37L28.03 5.37Q30.19 5.37 31.52 6.47Q32.86 7.57 32.86 9.62L32.86 9.62L32.86 15.73Q32.86 15.97 32.87 16.21Q32.87 16.44 32.89 16.68L32.89 16.68L33.83 16.80L33.83 18.28ZM27.09 16.59L27.09 16.59Q28.24 16.59 29.19 16.04Q30.14 15.49 30.55 14.72L30.55 14.72L30.55 12.63L28.09 12.63Q26.67 12.63 25.85 13.29Q25.02 13.95 25.02 14.88L25.02 14.88Q25.02 15.71 25.54 16.15Q26.05 16.59 27.09 16.59ZM37.48 2.54L39.79 2.54L39.79 5.60L42.19 5.60L42.19 7.31L39.79 7.31L39.79 15.01Q39.79 15.90 40.15 16.27Q40.52 16.63 41.13 16.63L41.13 16.63Q41.44 16.63 41.82 16.58Q42.20 16.52 42.46 16.46L42.46 16.46L42.77 18.05Q42.45 18.26 41.81 18.39Q41.18 18.53 40.55 18.53L40.55 18.53Q39.14 18.53 38.31 17.68Q37.48 16.83 37.48 15.01L37.48 15.01L37.48 7.31L35.47 7.31L35.47 5.60L37.48 5.60L37.48 2.54ZM46.45 7.42L44.54 7.09L44.54 5.60L48.52 5.60L48.74 7.44Q49.28 6.47 50.07 5.92Q50.86 5.37 51.88 5.37L51.88 5.37Q52.15 5.37 52.44 5.41Q52.72 5.45 52.88 5.50L52.88 5.50L52.57 7.64L51.26 7.57Q50.34 7.57 49.72 8.00Q49.10 8.43 48.76 9.20L48.76 9.20L48.76 16.48L50.67 16.80L50.67 18.28L44.54 18.28L44.54 16.80L46.45 16.48L46.45 7.42ZM54.47 18.28L54.47 16.80L56.38 16.48L56.38 7.42L54.47 7.09L54.47 5.60L58.69 5.60L58.69 16.48L60.60 16.80L60.60 18.28L54.47 18.28ZM58.69 0L58.69 2.36L56.38 2.36L56.38 0L58.69 0ZM73.65 18.28L70.63 18.28Q70.52 17.77 70.46 17.36Q70.41 16.95 70.38 16.54L70.38 16.54Q69.71 17.39 68.71 17.96Q67.71 18.53 66.57 18.53L66.57 18.53Q64.59 18.53 63.56 17.56Q62.53 16.59 62.53 14.84L62.53 14.84Q62.53 13.03 63.99 12.05Q65.45 11.07 67.99 11.07L67.99 11.07L70.37 11.07L70.37 9.60Q70.37 8.48 69.67 7.83Q68.96 7.18 67.71 7.18L67.71 7.18Q66.84 7.18 66.18 7.41Q65.52 7.63 65.11 8.02L65.11 8.02L64.86 9.35L63.08 9.35L63.08 6.89Q63.95 6.20 65.18 5.78Q66.41 5.37 67.85 5.37L67.85 5.37Q70.01 5.37 71.34 6.47Q72.68 7.57 72.68 9.62L72.68 9.62L72.68 15.73Q72.68 15.97 72.69 16.21Q72.69 16.44 72.71 16.68L72.71 16.68L73.65 16.80L73.65 18.28ZM66.91 16.59L66.91 16.59Q68.06 16.59 69.01 16.04Q69.96 15.49 70.37 14.72L70.37 14.72L70.37 12.63L67.91 12.63Q66.49 12.63 65.67 13.29Q64.84 13.95 64.84 14.88L64.84 14.88Q64.84 15.71 65.36 16.15Q65.87 16.59 66.91 16.59ZM77.17 1.82L75.26 1.49L75.26 0L79.48 0L79.48 16.48L81.39 16.80L81.39 18.28L75.26 18.28L75.26 16.80L77.17 16.48L77.17 1.82ZM95.18 5.60L95.18 7.09L94.04 7.27L89.21 20.23Q88.73 21.50 87.83 22.45Q86.93 23.40 85.41 23.40L85.41 23.40Q85.14 23.40 84.70 23.34Q84.27 23.27 84.04 23.21L84.04 23.21L84.27 21.40Q84.20 21.39 84.69 21.42Q85.17 21.46 85.30 21.46L85.30 21.46Q86.04 21.46 86.50 20.82Q86.95 20.18 87.29 19.35L87.29 19.35L87.84 18.04L83.66 7.28L82.50 7.09L82.50 5.60L87.62 5.60L87.62 7.09L86.19 7.32L88.38 13.58L88.80 15.20L88.88 15.20L91.51 7.32L90.07 7.09L90.07 5.60L95.18 5.60Z" transform="translate(36, 8.86)"></path></svg>